<svg width="93" height="28" viewBox="0 0 93 28" fill="none" xmlns="http://www.w3.org/2000/svg">
<path d="M40.0443 0.0232293C40.0017 0.0658453 36.7202 0.122666 32.7427 0.136872L25.5122 0.165282L25.6117 2.94952C25.7253 6.13151 25.839 9.04361 25.91 10.2794C25.9384 10.7482 25.9668 11.2454 25.9668 11.3733C25.981 11.7 26.2367 11.7142 32.3166 12.0551C43.3825 12.666 48.9368 12.6802 58.6532 12.1261C60.642 12.0125 62.9858 11.8705 63.8381 11.8278C65.8126 11.7142 66.1678 11.6858 66.2388 11.6147C66.2957 11.5437 66.6224 3.74502 66.665 1.64263L66.6792 0.26472L65.5427 0.193693C63.6392 0.108461 40.1153 -0.0620025 40.0443 0.0232293Z" fill="white" fill-opacity="0.7"/>
<path d="M15.5412 0.364863C12.4587 0.43589 6.09471 0.719996 4.74521 0.833636C2.72805 1.03251 1.90415 1.31662 1.09444 2.12632C0.100073 3.12069 -0.0561854 3.78834 0.0148415 6.94192C0.0432516 8.39086 0.114278 9.5415 0.19951 9.62675C0.284742 9.69777 0.923983 9.79717 1.62004 9.85403C2.3303 9.89666 3.56616 9.99606 4.39008 10.0671C6.10891 10.2233 6.50666 10.2517 11.2797 10.6353C13.24 10.7773 15.4702 10.9478 16.2515 10.9904C17.0328 11.0331 18.4391 11.1325 19.3766 11.2035C20.3142 11.2887 21.6211 11.374 22.2887 11.4308C22.9564 11.4734 23.7377 11.5303 24.036 11.5586L24.5616 11.6013V10.9478C24.5616 10.5785 24.4622 8.29142 24.3485 5.87652C24.2349 3.44741 24.1355 1.20297 24.1355 0.862051V0.251221L20.5557 0.293836C18.5812 0.322247 16.3225 0.350657 15.5412 0.364863Z" fill="white" fill-opacity="0.7"/>
<path d="M67.9009 5.18079C67.8015 7.90822 67.7021 10.4226 67.6736 10.7635C67.6452 11.1187 67.6452 11.4311 67.6736 11.488C67.7021 11.5306 68.3129 11.5306 69.0516 11.4737C69.776 11.4169 71.0403 11.3317 71.8643 11.2891C72.6881 11.2323 73.6825 11.1612 74.0661 11.1328C74.4638 11.1044 75.2877 11.0476 75.9127 11.005C77.6032 10.8914 86.0131 10.2237 89.2655 9.95377L92.1069 9.71225L92.1917 8.85999C92.3629 7.14113 92.2349 4.07279 91.9646 3.33411C91.6383 2.42496 90.8426 1.64367 89.8765 1.28854C88.513 0.777152 83.7541 0.493045 73.5546 0.322582L68.0857 0.223145L67.9009 5.18079Z" fill="white" fill-opacity="0.7"/>
<path d="M0.341137 11.6584C0.72468 14.1444 1.33551 15.849 2.25885 17.0706C3.96349 19.3151 7.03183 20.8209 12.8276 22.2129C16.6773 23.1363 25.5272 24.8694 25.6123 24.7131C25.6408 24.6705 25.5556 23.2784 25.4135 21.6447C25.2714 19.9969 25.0441 17.3832 24.9163 15.8206C24.7885 14.258 24.6748 12.9795 24.6606 12.9653C24.6464 12.9511 22.5867 12.8091 20.0865 12.6386C17.5864 12.4682 15.2283 12.2977 14.8306 12.2693C14.447 12.2409 13.6373 12.1699 13.0548 12.1272C12.4725 12.0846 11.6344 12.0277 11.2082 11.9851C10.782 11.9425 10.0149 11.8857 9.50352 11.8431C5.24197 11.5306 1.10822 11.1896 0.72468 11.1186L0.241699 11.0476L0.341137 11.6584Z" fill="white" fill-opacity="0.7"/>
<path d="M88.8407 11.3451C87.278 11.4871 85.4315 11.6434 84.7213 11.7003C84.0251 11.7429 83.187 11.8139 82.8745 11.8423C82.5619 11.8707 81.7664 11.9276 81.0988 11.9843C80.4311 12.027 79.5788 12.098 79.1811 12.1264C78.3004 12.2116 77.7038 12.2542 72.1495 12.6378C69.6919 12.8083 67.6464 12.9646 67.6321 12.9929C67.5754 13.0356 66.6094 23.7321 66.6094 24.3572V24.7976L69.1379 24.3429C70.53 24.0873 73.2575 23.5474 75.2036 23.1355C83.3859 21.4309 86.6103 20.266 88.8551 18.2489C90.5025 16.7573 91.1991 15.3936 91.7389 12.581C91.9804 11.3025 91.9804 11.0326 91.7669 11.0752C91.7245 11.0894 90.4034 11.2172 88.8407 11.3451Z" fill="white" fill-opacity="0.7"/>
<path d="M26.1668 14.3563C26.2804 16.1462 26.9623 24.0869 27.0475 24.641L27.1185 25.0671L29.0788 25.3938C32.2041 25.9052 37.3464 26.6439 40.1874 26.9848C43.5967 27.3967 48.3554 27.4252 51.4807 27.07C56.1968 26.516 64.8763 25.1949 65.0751 24.996C65.1177 24.9534 65.2029 24.5557 65.2456 24.1295C65.3308 23.2914 65.3308 23.263 65.757 18.0923C65.9132 16.2172 66.0837 14.3137 66.1263 13.8449L66.2116 13.021L64.6774 13.1204C63.825 13.1773 62.8449 13.234 62.4897 13.2625C62.1346 13.2909 61.0266 13.3477 60.0038 13.4045C58.9953 13.4613 57.9156 13.5182 57.6173 13.5466C53.7535 13.9017 39.5055 13.9017 34.5763 13.5466C34.1927 13.5182 33.1273 13.4613 32.2325 13.4045C31.3375 13.3619 30.2153 13.2909 29.7465 13.2625C29.2777 13.234 28.2549 13.163 27.4879 13.1204L26.0815 13.021L26.1668 14.3563Z" fill="white" fill-opacity="0.7"/>
</svg>
